<svg xmlns="http://www.w3.org/2000/svg" width="51.384" height="51.384" viewBox="0 0 51.384 51.384">
  <path id="Icon_awesome-wordpress" data-name="Icon awesome-wordpress" d="M6.126,17.283l10.515,28.8a22.044,22.044,0,0,1-10.515-28.8Zm35.006,7.863a11.623,11.623,0,0,0-1.813-6.081c-1.119-1.813-2.165-3.357-2.165-5.17a3.815,3.815,0,0,1,3.7-3.916c.093,0,.186.01.29.021A22.037,22.037,0,0,0,7.835,14.144c.518.021,1,.031,1.419.031,2.3,0,5.874-.28,5.874-.28a.91.91,0,0,1,.145,1.813s-1.191.135-2.517.207l8.029,23.869,4.828-14.462-3.429-9.407c-1.191-.073-2.31-.207-2.31-.207a.909.909,0,0,1,.135-1.813s3.636.28,5.8.28c2.3,0,5.874-.28,5.874-.28a.91.91,0,0,1,.145,1.813s-1.191.135-2.517.207l7.967,23.693,2.2-7.345C40.406,29.218,41.131,27.032,41.131,25.146ZM26.638,28.182,20.028,47.4a21.961,21.961,0,0,0,13.54-.352,1.651,1.651,0,0,1-.155-.3L26.638,28.182ZM45.6,15.677a17.17,17.17,0,0,1,.145,2.269,20.7,20.7,0,0,1-1.678,7.894L37.329,45.306A22.061,22.061,0,0,0,45.6,15.677Zm6.351,10.577A25.692,25.692,0,1,1,26.255.563,25.721,25.721,0,0,1,51.947,26.255Zm-1.181,0A24.511,24.511,0,1,0,26.255,50.766,24.54,24.54,0,0,0,50.766,26.255Z" transform="translate(-0.563 -0.563)" fill="#6b71b9"/>
</svg>
