<svg xmlns="http://www.w3.org/2000/svg" width="51.282" height="51.282" viewBox="0 0 51.282 51.282">
  <path id="Icon_awesome-bootstrap" data-name="Icon awesome-bootstrap" d="M33.459,34.293c0,4.855-4.547,4.742-5.027,4.742H19.172V29.685h9.259c4.872,0,5.027,3.652,5.027,4.609Zm-5.741-8.371c.077,0,4.4.114,4.4-4.156,0-1.777-.4-4.106-4.4-4.106H19.172v8.262ZM51.282,10.8V44.985a8.573,8.573,0,0,1-8.547,8.547H8.547A8.573,8.573,0,0,1,0,44.985V10.8A8.573,8.573,0,0,1,8.547,2.25H42.735A8.573,8.573,0,0,1,51.282,10.8ZM38.7,34.972c0-2.469-.761-6.672-5.615-7.709v-.084a6.558,6.558,0,0,0,4.274-6.369c0-.8.229-7.415-8.883-7.415H13.935V43.309c14.678,0,16.011.192,18.727-.654,1.627-.506,6.034-2.058,6.034-7.683Z" transform="translate(0 -2.25)" fill="#860ec3"/>
</svg>
