<svg xmlns="http://www.w3.org/2000/svg" width="65.864" height="51.75" viewBox="0 0 65.864 51.75">
  <g id="Icon_ionic-logo-javascript" data-name="Icon ionic-logo-javascript" transform="translate(24.75 -2.25)">
    <path id="Path_1" data-name="Path 1" d="M1.125,2.813H-10.636V34.053c0,7.73-2.651,9.889-7.264,9.889a17.574,17.574,0,0,1-5.623-.891L-24.75,52.2a27.886,27.886,0,0,0,8.072,1.19c10.592,0,17.8-4.98,17.8-19.256V2.813Z" transform="translate(0 0.614)"/>
    <path id="Path_2" data-name="Path 2" d="M9.592,2.25C-1.793,2.25-9,8.718-9,17.268c0,7.363,5.55,11.973,13.62,14.946,5.837,2.081,8.144,3.941,8.144,6.989,0,3.346-2.667,5.5-7.711,5.5A25.5,25.5,0,0,1-6.767,41.581v0L-9,50.873A29.154,29.154,0,0,0,4.4,54c13.333,0,19.529-7.138,19.529-15.539,0-7.138-3.963-11.747-12.537-15.02C5.052,20.911,2.387,19.5,2.387,16.3c0-2.529,2.306-4.832,7.063-4.832a20.34,20.34,0,0,1,9.777,2.542L22.039,4.6A30.285,30.285,0,0,0,9.592,2.25Z" transform="translate(17.182 0)"/>
  </g>
</svg>
