<svg xmlns="http://www.w3.org/2000/svg" width="98.133" height="51.612" viewBox="0 0 98.133 51.612">
  <path id="Icon_awesome-php" data-name="Icon awesome-php" d="M49.067,8.742c26.281,0,46.491,11.071,46.491,23.23S75.333,55.2,49.067,55.2c-26.281,0-46.491-11.071-46.491-23.23S22.8,8.742,49.067,8.742m0-2.576C21.973,6.166,0,17.712,0,31.972S21.973,57.778,49.067,57.778,98.133,46.232,98.133,31.972,76.161,6.166,49.067,6.166ZM33.457,29.9c-1.211,6.21-5.489,5.566-10.749,5.566l2.1-10.825C30.636,24.643,34.592,24.014,33.457,29.9ZM14.935,46.432h5.627L21.9,39.562c6.3,0,10.212.46,13.831-2.929,4-3.68,5.045-10.227,2.193-13.509-1.487-1.717-3.879-2.561-7.13-2.561H19.949ZM43.409,13.68h5.6l-1.334,6.869c4.83,0,9.307-.353,11.469,1.641,2.269,2.085,1.181,4.753-1.273,17.342H52.195C54.556,27.357,55,26.345,54.142,25.425c-.828-.889-2.714-.705-7.268-.705L43.991,39.532h-5.6L43.409,13.68ZM77.433,29.9c-1.227,6.3-5.627,5.566-10.749,5.566l2.1-10.825C74.643,24.643,78.568,24.014,77.433,29.9ZM58.911,46.432h5.643l1.334-6.869c6.624,0,10.289.383,13.831-2.929,4-3.68,5.045-10.227,2.193-13.509-1.487-1.717-3.879-2.561-7.13-2.561H63.94Z" transform="translate(0 -6.166)"/>
</svg>
